<svg xmlns="http://www.w3.org/2000/svg" xmlns:xlink="http://www.w3.org/1999/xlink" width="263" zoomAndPan="magnify" viewBox="0 0 197.25 116.249996" height="155" preserveAspectRatio="xMidYMid meet" version="1.0"><defs><clipPath id="b899c41532"><path d="M 2.085938 10.902344 L 91.511719 10.902344 L 91.511719 100.324219 L 2.085938 100.324219 Z M 2.085938 10.902344 " clip-rule="nonzero"/></clipPath><clipPath id="d900b77714"><path d="M 20.679688 54.175781 L 72.839844 54.175781 L 72.839844 115.0625 L 20.679688 115.0625 Z M 20.679688 54.175781 " clip-rule="nonzero"/></clipPath><clipPath id="2621caf33f"><path d="M 46.839844 54.175781 L 73.003906 69.394531 L 73.003906 99.839844 L 46.839844 115.0625 L 20.679688 99.839844 L 20.679688 69.394531 Z M 46.839844 54.175781 " clip-rule="nonzero"/></clipPath><clipPath id="697dc162d0"><path d="M 69.003906 54.175781 L 121.167969 54.175781 L 121.167969 115.0625 L 69.003906 115.0625 Z M 69.003906 54.175781 " clip-rule="nonzero"/></clipPath><clipPath id="c6cb422afc"><path d="M 95.167969 54.175781 L 121.328125 69.394531 L 121.328125 99.839844 L 95.167969 115.0625 L 69.003906 99.839844 L 69.003906 69.394531 Z M 95.167969 54.175781 " clip-rule="nonzero"/></clipPath><clipPath id="a99d63d2b0"><path d="M 93.507812 12.636719 L 145.671875 12.636719 L 145.671875 73.527344 L 93.507812 73.527344 Z M 93.507812 12.636719 " clip-rule="nonzero"/></clipPath><clipPath id="1f19f7ddc7"><path d="M 119.671875 12.636719 L 145.835938 27.859375 L 145.835938 58.304688 L 119.671875 73.527344 L 93.507812 58.304688 L 93.507812 27.859375 Z M 119.671875 12.636719 " clip-rule="nonzero"/></clipPath><clipPath id="cfd27389fa"><path d="M 141 14 L 191 14 L 191 68 L 141 68 Z M 141 14 " clip-rule="nonzero"/></clipPath><clipPath id="f2dcde4191"><path d="M 147.269531 7.070312 L 195.890625 21.34375 L 181.613281 69.964844 L 132.992188 55.6875 Z M 147.269531 7.070312 " clip-rule="nonzero"/></clipPath><clipPath id="b2dbf9c2fb"><path d="M 147.269531 7.070312 L 195.722656 21.296875 L 181.496094 69.75 L 133.042969 55.519531 Z M 147.269531 7.070312 " clip-rule="nonzero"/></clipPath><clipPath id="1edea9597e"><path d="M 171.496094 14.183594 L 190.289062 39.804688 L 172.242188 67.03125 L 142.296875 58.238281 L 141.835938 25.574219 Z M 171.496094 14.183594 " clip-rule="nonzero"/></clipPath><clipPath id="25a6edca27"><path d="M 0.257812 76 L 47 76 L 47 115.503906 L 0.257812 115.503906 Z M 0.257812 76 " clip-rule="nonzero"/></clipPath></defs><g clip-path="url(#b899c41532)"><path fill="#0264a6" d="M 46.84375 74.171875 C 36.640625 74.171875 28.332031 65.863281 28.332031 55.660156 C 28.332031 45.453125 36.640625 37.148438 46.84375 37.148438 C 57.050781 37.148438 65.355469 45.453125 65.355469 55.660156 C 65.355469 65.863281 57.050781 74.171875 46.84375 74.171875 Z M 46.84375 38.777344 C 37.535156 38.777344 29.960938 46.347656 29.960938 55.660156 C 29.960938 64.96875 37.535156 72.542969 46.84375 72.542969 C 56.15625 72.542969 63.726562 64.96875 63.726562 55.660156 C 63.726562 46.347656 56.15625 38.777344 46.84375 38.777344 Z M 46.84375 83.570312 C 31.449219 83.570312 18.933594 71.054688 18.933594 55.660156 C 18.933594 40.261719 31.449219 27.746094 46.84375 27.746094 C 62.242188 27.746094 74.757812 40.261719 74.757812 55.660156 C 74.757812 71.054688 62.242188 83.570312 46.84375 83.570312 Z M 46.84375 29.375 C 32.34375 29.375 20.5625 41.175781 20.5625 55.660156 C 20.5625 70.140625 32.34375 81.941406 46.84375 81.941406 C 61.347656 81.941406 73.125 70.160156 73.125 55.660156 C 73.125 41.15625 61.347656 29.375 46.84375 29.375 Z M 46.84375 92.269531 C 26.667969 92.269531 10.234375 75.855469 10.234375 55.660156 C 10.234375 35.464844 26.667969 19.046875 46.84375 19.046875 C 67.023438 19.046875 83.457031 35.480469 83.457031 55.660156 C 83.457031 75.835938 67.023438 92.269531 46.84375 92.269531 Z M 46.84375 20.675781 C 27.5625 20.675781 11.863281 36.378906 11.863281 55.660156 C 11.863281 74.941406 27.5625 90.640625 46.84375 90.640625 C 66.125 90.640625 81.828125 74.941406 81.828125 55.660156 C 81.828125 36.378906 66.125 20.675781 46.84375 20.675781 Z M 46.84375 100.417969 C 22.15625 100.417969 2.085938 80.347656 2.085938 55.660156 C 2.085938 30.96875 22.15625 10.902344 46.84375 10.902344 C 71.535156 10.902344 91.601562 30.96875 91.601562 55.660156 C 91.601562 80.347656 71.535156 100.417969 46.84375 100.417969 Z M 46.84375 12.53125 C 23.070312 12.53125 3.714844 31.882812 3.714844 55.660156 C 3.714844 79.433594 23.070312 98.789062 46.84375 98.789062 C 70.621094 98.789062 89.972656 79.433594 89.972656 55.660156 C 89.972656 31.882812 70.621094 12.53125 46.84375 12.53125 Z M 46.84375 12.53125 " fill-opacity="1" fill-rule="nonzero"/></g><g clip-path="url(#d900b77714)"><g clip-path="url(#2621caf33f)"><path stroke-linecap="butt" transform="matrix(0.745192, 0, 0, 0.745192, 20.678172, 54.173989)" fill="none" stroke-linejoin="miter" d="M 35.107276 0.00240524 L 70.21776 20.424986 L 70.21776 61.280632 L 35.107276 81.708454 L 0.00203399 61.280632 L 0.00203399 20.424986 Z M 35.107276 0.00240524 " stroke="#000000" stroke-width="10" stroke-opacity="1" stroke-miterlimit="4"/></g></g><g clip-path="url(#697dc162d0)"><g clip-path="url(#c6cb422afc)"><path stroke-linecap="butt" transform="matrix(0.745192, 0, 0, 0.745192, 69.003408, 54.173989)" fill="none" stroke-linejoin="miter" d="M 35.111152 0.00240524 L 70.216395 20.424986 L 70.216395 61.280632 L 35.111152 81.708454 L 0.000668273 61.280632 L 0.000668273 20.424986 Z M 35.111152 0.00240524 " stroke="#000000" stroke-width="10" stroke-opacity="1" stroke-miterlimit="4"/></g></g><g clip-path="url(#a99d63d2b0)"><g clip-path="url(#1f19f7ddc7)"><path stroke-linecap="butt" transform="matrix(0.745192, 0, 0, 0.745192, 93.508437, 12.63759)" fill="none" stroke-linejoin="miter" d="M 35.109646 -0.00116917 L 70.220131 20.426654 L 70.220131 61.282299 L 35.109646 81.710122 L -0.000837677 61.282299 L -0.000837677 20.426654 Z M 35.109646 -0.00116917 " stroke="#000000" stroke-width="10" stroke-opacity="1" stroke-miterlimit="4"/></g></g><g clip-path="url(#cfd27389fa)"><g clip-path="url(#f2dcde4191)"><g clip-path="url(#b2dbf9c2fb)"><g clip-path="url(#1edea9597e)"><path stroke-linecap="butt" transform="matrix(0.715005, 0.209953, -0.209953, 0.715005, 147.269763, 7.068523)" fill="none" stroke-linejoin="miter" d="M 33.883255 0.00166258 L 67.767431 25.885441 L 54.824598 67.764822 L 12.943352 67.76498 L 0.00020111 25.88187 Z M 33.883255 0.00166258 " stroke="#000000" stroke-width="10" stroke-opacity="1" stroke-miterlimit="4"/></g></g></g></g><g clip-path="url(#25a6edca27)"><path stroke-linecap="butt" transform="matrix(0.645355, -0.372596, 0.372596, 0.645355, 0.258873, 110.156756)" fill="none" stroke-linejoin="miter" d="M 0.00162363 2.499987 L 37.450534 2.500288 " stroke="#000000" stroke-width="5" stroke-opacity="1" stroke-miterlimit="4"/></g><path stroke-linecap="butt" transform="matrix(0, -0.745192, 0.745192, 0, 69.656717, 70.114813)" fill="none" stroke-linejoin="miter" d="M 0.00205485 2.499777 L 37.450445 2.499777 " stroke="#000000" stroke-width="5" stroke-opacity="1" stroke-miterlimit="4"/><path stroke-linecap="butt" transform="matrix(-0.602868, -0.43802, 0.43802, -0.602868, 95.92275, 30.874778)" fill="none" stroke-linejoin="miter" d="M -0.00154758 2.501822 L 37.455362 2.500773 " stroke="#000000" stroke-width="5" stroke-opacity="1" stroke-miterlimit="4"/><path stroke-linecap="butt" transform="matrix(0, -0.745192, 0.745192, 0, 142.488743, 27.903698)" fill="none" stroke-linejoin="miter" d="M 0.00181791 2.499783 L 37.450208 2.499783 " stroke="#000000" stroke-width="5" stroke-opacity="1" stroke-miterlimit="4"/></svg>